# xmcd
#
# Track frame offsets:
#	150
#	14072
#	28860
#	41916
#
# Disc length: 727 seconds
#
# Revision: 0
# Processed by: cddbd v1.5.2PL0 Copyright (c) Steve Scherf et al.
# Submitted via: audiograbber 1.83.01
#
DISCID=3302d504
DTITLE=Janez and Irena - Drum bleib ich Musikant
DYEAR=2004
DGENRE=Volksmusik
TTITLE0=Drum bleib ich Musikant
TTITLE1=Wenn der Frühling erwacht
TTITLE2=Bei Giancarlo
TTITLE3=Frisch in den Sommer
EXTD=<http://www.hit-radio24.de> \n
EXTT0=
EXTT1=
EXTT2=
EXTT3=
PLAYORDER=
